<svg xmlns="http://www.w3.org/2000/svg" viewBox="0 0 56.5 56.5"><title>share</title><g id="圖層_2" data-name="圖層 2"><g id="圖層_1-2" data-name="圖層 1"><path d="M11,41.16a1.87,1.87,0,0,1-1.1-.35,1.89,1.89,0,0,1-.66-2.26c.14-.35,3.49-8.64,8.53-13.69a24.23,24.23,0,0,1,5.92-4.28l-3.35-4.65a1.9,1.9,0,0,1,1.92-3L46,17.89a1.9,1.9,0,0,1,1.41,1.26h0A1.89,1.89,0,0,1,47,21L30.88,39.06a1.94,1.94,0,0,1-2.09.51,1.9,1.9,0,0,1-1.23-1.75l-.07-5.41a38,38,0,0,0-4.92,1.44c-4.33,1.67-10.26,6.79-10.32,6.84A1.89,1.89,0,0,1,11,41.16Zm.56-1.68ZM23.28,15.72l3.31,4.61a1.27,1.27,0,0,1,.2,1.05,1.3,1.3,0,0,1-.7.82,22.33,22.33,0,0,0-6.54,4.43,40.54,40.54,0,0,0-7,10.56,41,41,0,0,1,9.09-5.67,43,43,0,0,1,6.81-1.87,1.27,1.27,0,0,1,1,.25,1.32,1.32,0,0,1,.46,1L30,36.24,44.43,20.13Zm22.17,4.62Z"/><rect x="1.25" y="1.25" width="54" height="54" stroke-width="2.5" stroke="#000" stroke-linecap="round" stroke-linejoin="round" fill="none"/></g></g></svg>