<?xml version="1.0" encoding="UTF-8"?>
<svg width="43px" height="50px" viewBox="0 0 43 50" version="1.1" xmlns="http://www.w3.org/2000/svg" xmlns:xlink="http://www.w3.org/1999/xlink">
    <!-- Generator: Sketch 54.1 (76490) - https://sketchapp.com -->
    <title>logo</title>
    <desc>Created with Sketch.</desc>
    <g id="Collections" stroke="none" stroke-width="1" fill="none" fill-rule="evenodd">
        <g id="PlayProject---search---white-theme" transform="translate(-38.000000, -35.000000)">
            <g id="logo" transform="translate(38.000000, 35.000000)">
                <polygon id="Path-11" fill="#337AFF" points="0 37 21 25.2716339 43 37.5433577 21.4956374 50"></polygon>
                <polygon id="Rectangle" fill="#FFE633" points="0 12.2869712 22 1.67847206e-14 22 24.6065909 0 37"></polygon>
                <polygon id="Path-6" fill="#35FF32" points="21 -7.01428746e-16 21 25.2716339 43 38 43 12.6930908"></polygon>
                <polygon id="Path-7" fill="#337AFF" points="7 17 13.8867371 21 21.5 16.6811418 28.7696086 21 36 16.8073988 21.5 8"></polygon>
                <polygon id="Path-8" fill="#FFE633" points="14 20.967359 14 29 21 24.9565197 21 17"></polygon>
                <polygon id="Path-9" fill="#35FF32" points="22 33.7162889 22 42 7 33.7162889 7 17 13.8867371 21 14 29.4757972"></polygon>
                <polygon id="Path-9-Copy" fill="#FFE633" transform="translate(29.000000, 29.403699) scale(-1, 1) translate(-29.000000, -29.403699) " points="36 33.7162889 36 42 22 33.7162889 22 16.8073988 29.2303914 21 29 29.4757972"></polygon>
            </g>
        </g>
    </g>
</svg>