<svg xmlns="http://www.w3.org/2000/svg" viewBox="0 0 56.5 56.5"><title>duplicate</title><g id="圖層_2" data-name="圖層 2"><g id="圖層_1-2" data-name="圖層 1"><rect x="1.25" y="1.25" width="54" height="54" stroke-width="2.5" stroke="#000" stroke-linecap="round" stroke-linejoin="round" fill="none"/><path d="M34.6,16.87H11.9a1.25,1.25,0,0,0-1.25,1.25V46a1.25,1.25,0,0,0,1.25,1.25H34.6A1.25,1.25,0,0,0,35.85,46V18.12A1.25,1.25,0,0,0,34.6,16.87ZM33.35,44.78H13.15V19.37h20.2Z"/><path d="M44.6,9.22H21.9a1.25,1.25,0,0,0-1.25,1.25v3.41a1.25,1.25,0,1,0,2.5,0V11.72h20.2V37.13H39.27a1.25,1.25,0,0,0,0,2.5H44.6a1.25,1.25,0,0,0,1.25-1.25V10.47A1.25,1.25,0,0,0,44.6,9.22Z"/><path d="M17,26.56H29.14a1.25,1.25,0,0,0,0-2.5H17a1.25,1.25,0,1,0,0,2.5Z"/><path d="M17,33.33H29.14a1.25,1.25,0,0,0,0-2.5H17a1.25,1.25,0,1,0,0,2.5Z"/><path d="M17,40.09h8.09a1.25,1.25,0,1,0,0-2.5H17a1.25,1.25,0,1,0,0,2.5Z"/></g></g></svg>