<svg xmlns="http://www.w3.org/2000/svg" viewBox="0 0 56.5 56.5"><title>favorite</title><g id="圖層_2" data-name="圖層 2"><g id="圖層_1-2" data-name="圖層 1"><path d="M28.25,46.9a1.23,1.23,0,0,1-.75-.25A84.63,84.63,0,0,1,16.4,36.41c-7.11-8-9.15-14.45-6-19.19,1.74-2.66,3.93-4.07,6.51-4.19,4.76-.23,9.42,4.14,11.39,6.27,2-2.13,6.58-6.51,11.39-6.27,2.59.12,4.77,1.53,6.51,4.19h0c3.1,4.74,1.06,11.2-6,19.19A84.63,84.63,0,0,1,29,46.65,1.23,1.23,0,0,1,28.25,46.9Zm-11-31.38H17c-1.77.08-3.25,1.08-4.54,3-4.72,7.24,9.17,20.33,15.81,25.5,6.64-5.17,20.53-18.26,15.81-25.5h0c-1.29-2-2.77-3-4.53-3-4.89-.25-10.25,6.38-10.3,6.45a1.25,1.25,0,0,1-1,.47h0a1.25,1.25,0,0,1-1-.47C27.22,21.92,22,15.52,17.23,15.52Z"/><rect x="1.25" y="1.25" width="54" height="54" stroke-width="2.5" stroke="#000" stroke-linecap="round" stroke-linejoin="round" fill="none"/></g></g></svg>