<?xml version="1.0" encoding="UTF-8"?>
<svg width="12px" height="10px" viewBox="0 0 12 10" version="1.1" xmlns="http://www.w3.org/2000/svg" xmlns:xlink="http://www.w3.org/1999/xlink">
    <!-- Generator: Sketch 54.1 (76490) - https://sketchapp.com -->
    <title>icon/share</title>
    <desc>Created with Sketch.</desc>
    <defs>
        <path d="M4.43491327,2.4768951 L5.47004409,3.91588022 C5.53855229,4.01129119 5.56076271,4.13235363 5.53010607,4.24590833 C5.49944943,4.3591502 5.41999243,4.45299705 5.31269419,4.50117177 C4.76869525,4.74486077 3.97287392,5.18406406 3.26777121,5.88885394 C2.27956383,6.8767485 1.50094775,8.32824653 1.09021135,9.18976066 C1.7890576,8.64044374 2.95494836,7.79300663 3.9315813,7.41761921 C4.50936511,7.19582781 5.22510379,6.99906224 6.05877669,6.83264048 C6.17295703,6.80980441 6.29057842,6.83920976 6.38098423,6.91241031 C6.47139003,6.98529803 6.52456992,7.09478603 6.52613403,7.21084331 L6.54928292,8.89351742 L11.0489268,3.85362847 L4.43491327,2.4768951 Z M0.594074307,10.4335443 C0.469883635,10.4335443 0.350698129,10.3953799 0.249656348,10.3234307 C0.0247367179,10.1626397 -0.0597254518,9.87265295 0.0438189118,9.6173895 C0.0860499967,9.51071691 1.12305775,6.9274258 2.71470041,5.33578314 C3.33252554,4.71827083 4.00947419,4.28438554 4.56379629,3.99533722 L3.51709103,2.54039814 C3.37319252,2.34050434 3.36662324,2.07742032 3.50113706,1.87033159 C3.63533806,1.66418134 3.87683731,1.56313956 4.11896219,1.61225274 L11.5281714,3.15478222 C11.7343217,3.19732613 11.9041845,3.34904521 11.9705029,3.5501903 L11.9705029,3.55050313 C12.0365086,3.7513354 11.9898979,3.97406527 11.8491277,4.13141516 L6.81049,9.77536504 C6.65063752,9.95461253 6.38098423,10.0203053 6.15762871,9.93521752 C5.93177061,9.85075535 5.77661048,9.63021524 5.77379507,9.38683906 L5.75064618,7.69759566 C5.15722123,7.83210949 4.64106353,7.9828901 4.21187058,8.14774775 C2.86986055,8.6632798 1.00262095,10.2708764 0.984164402,10.2871432 C0.875614873,10.3816157 0.737347173,10.4335443 0.594074307,10.4335443 L0.594074307,10.4335443 Z" id="path-1"></path>
    </defs>
    <g id="Collections" stroke="none" stroke-width="1" fill="none" fill-rule="evenodd">
        <g id="PlayProject---search---dark-theme" transform="translate(-174.000000, -340.000000)">
            <g id="Group-6" transform="translate(80.000000, 338.000000)">
                <g id="icon/share" transform="translate(94.000000, 1.000000)">
                    <mask id="mask-2" fill="white">
                        <use xlink:href="#path-1"></use>
                    </mask>
                    <use id="Fill-1" fill="#000000" fill-rule="evenodd" xlink:href="#path-1"></use>
                    <g id="colors/white" mask="url(#mask-2)" fill="#FFFFFF" fill-rule="evenodd">
                        <rect id="Rectangle" x="0" y="0" width="12" height="12"></rect>
                    </g>
                </g>
            </g>
        </g>
    </g>
</svg>