<?xml version="1.0" encoding="UTF-8"?>
<svg width="22px" height="22px" viewBox="0 0 22 22" version="1.1" xmlns="http://www.w3.org/2000/svg" xmlns:xlink="http://www.w3.org/1999/xlink">
    <!-- Generator: Sketch 54.1 (76490) - https://sketchapp.com -->
    <title>Group 5</title>
    <desc>Created with Sketch.</desc>
    <defs>
        <path d="M1.02564103,6.32754872 C1.02564103,3.40406154 3.40389744,1.02580513 6.32738462,1.02580513 C9.25087179,1.02580513 11.6295385,3.40406154 11.6295385,6.32754872 C11.6295385,9.2510359 9.25087179,11.6292923 6.32738462,11.6292923 C3.40389744,11.6292923 1.02564103,9.2510359 1.02564103,6.32754872 M15.7033846,14.9499077 L11.1458462,10.4190359 C12.0849231,9.31462564 12.6551795,7.88734359 12.6551795,6.32754872 C12.6551795,2.83872821 9.81661538,0.000164102564 6.32738462,0.000164102564 C2.8385641,0.000164102564 0,2.83872821 0,6.32754872 C0,9.81636923 2.8385641,12.6549333 6.32738462,12.6549333 C7.88841026,12.6549333 9.31610256,12.0842667 10.4205128,11.143959 L14.9805128,15.6772923 C15.0802051,15.7765744 15.2114872,15.8262154 15.3419487,15.8262154 C15.473641,15.8262154 15.6057436,15.7757538 15.7058462,15.675241 C15.9052308,15.4742154 15.9044103,15.1492923 15.7033846,14.9499077" id="path-1"></path>
    </defs>
    <g id="Collections" stroke="none" stroke-width="1" fill="none" fill-rule="evenodd">
        <g id="PlayProject---search---dark-theme" transform="translate(-4.000000, -127.000000)">
            <g id="Group-5" transform="translate(0.000000, 123.000000)">
                <g id="icon/search" transform="translate(7.000000, 7.000000)">
                    <mask id="mask-2" fill="white">
                        <use xlink:href="#path-1"></use>
                    </mask>
                    <use id="Fill-1" fill="#000000" fill-rule="evenodd" xlink:href="#path-1"></use>
                    <g id="colors/17FFA7" mask="url(#mask-2)" fill="#17FFA7" fill-rule="evenodd">
                        <rect id="Rectangle" x="0" y="0" width="16" height="16"></rect>
                    </g>
                </g>
                <rect id="Rectangle" x="0" y="0" width="30" height="30"></rect>
            </g>
        </g>
    </g>
</svg>