<?xml version="1.0" encoding="UTF-8"?>
<svg width="12px" height="8px" viewBox="0 0 12 8" version="1.1" xmlns="http://www.w3.org/2000/svg" xmlns:xlink="http://www.w3.org/1999/xlink">
    <!-- Generator: Sketch 54.1 (76490) - https://sketchapp.com -->
    <title>icon/view</title>
    <desc>Created with Sketch.</desc>
    <defs>
        <path d="M5.99984957,9.03181647 C9.59578789,9.03181647 11.1211734,6.25964648 11.2430237,5.8212862 C11.108537,5.41241068 9.46792027,2.75216247 5.99984957,2.75216247 C2.4661903,2.75216247 0.941707409,5.47679579 0.764798797,5.82971042 C0.957051523,6.37457691 2.56006017,9.03181647 5.99984957,9.03181647 Z M5.99984957,2 C9.98570891,2 12,5.17232042 12,5.81677322 C12,6.36043625 10.1948101,9.78397894 5.99984957,9.78397894 C1.80518992,9.78397894 -7.10542736e-15,6.36043625 -7.10542736e-15,5.81677322 C-7.10542736e-15,5.19578789 2.08770214,2 5.99984957,2 Z M5.99984957,7.41039489 C6.83715683,7.41039489 7.51831516,6.72923656 7.51831516,5.8919293 C7.51831516,5.05462204 6.83715683,4.37346371 5.99984957,4.37346371 C5.16254231,4.37346371 4.48138398,5.05462204 4.48138398,5.8919293 C4.48138398,6.72923656 5.16254231,7.41039489 5.99984957,7.41039489 Z M5.99984957,3.62130124 C7.25174878,3.62130124 8.27047762,4.64003009 8.27047762,5.8919293 C8.27047762,7.14382851 7.25174878,8.16255735 5.99984957,8.16255735 C4.74795036,8.16255735 3.72922151,7.14382851 3.72922151,5.8919293 C3.72922151,4.64003009 4.74795036,3.62130124 5.99984957,3.62130124 Z" id="path-1"></path>
    </defs>
    <g id="Collections" stroke="none" stroke-width="1" fill="none" fill-rule="evenodd">
        <g id="PlayProject---search---dark-theme" transform="translate(-80.000000, -341.000000)">
            <g id="Group-6" transform="translate(80.000000, 338.000000)">
                <g id="icon/view" transform="translate(0.000000, 1.000000)">
                    <mask id="mask-2" fill="white">
                        <use xlink:href="#path-1"></use>
                    </mask>
                    <use id="Combined-Shape" fill="#000000" fill-rule="evenodd" xlink:href="#path-1"></use>
                    <g id="colors/white" mask="url(#mask-2)" fill="#FFFFFF" fill-rule="evenodd">
                        <rect id="Rectangle" x="0" y="0" width="12" height="12"></rect>
                    </g>
                </g>
            </g>
        </g>
    </g>
</svg>