<svg xmlns="http://www.w3.org/2000/svg" viewBox="0 0 56.5 56.5"><title>view</title><g id="圖層_2" data-name="圖層 2"><g id="圖層_1-2" data-name="圖層 1"><path d="M28.25,15.18c-13,0-19.94,10.62-19.94,12.69,0,1.8,6,13.18,19.94,13.18S48.19,29.67,48.19,27.87C48.19,25.73,41.5,15.18,28.25,15.18Zm0,23.37c-11.43,0-16.76-8.83-17.4-10.64a19.63,19.63,0,0,1,17.4-10.23c11.53,0,17,8.84,17.43,10.2C45.27,29.34,40.2,38.55,28.25,38.55Z"/><path d="M28.25,20.57a7.55,7.55,0,1,0,7.55,7.55A7.56,7.56,0,0,0,28.25,20.57Zm0,12.59a5,5,0,1,1,5-5A5.05,5.05,0,0,1,28.25,33.16Z"/><rect x="1.25" y="1.25" width="54" height="54" stroke-width="2.5" stroke="#000" stroke-linecap="round" stroke-linejoin="round" fill="none"/></g></g></svg>