<?xml version="1.0" encoding="UTF-8"?>
<svg width="12px" height="12px" viewBox="0 0 12 12" version="1.1" xmlns="http://www.w3.org/2000/svg" xmlns:xlink="http://www.w3.org/1999/xlink">
    <!-- Generator: Sketch 54.1 (76490) - https://sketchapp.com -->
    <title>icon/favorite</title>
    <desc>Created with Sketch.</desc>
    <defs>
        <path d="M2.57537287,1.57733961 C2.5486406,1.57733961 2.52190832,1.57796129 2.49517605,1.57920465 C1.94778609,1.60593693 1.4871206,1.91677734 1.08706899,2.52944379 C-0.382584466,4.77806331 3.93467799,8.84696428 5.99990167,10.4533875 C8.06481451,8.84696428 12.3823878,4.77806331 10.9127343,2.52944379 C10.5126827,1.91677734 10.0520173,1.60593693 9.50462729,1.57920465 C7.98461769,1.50118371 6.31975645,3.56485319 6.30297107,3.5856795 C6.22930189,3.67768826 6.11771019,3.73115281 5.99990167,3.73115281 C5.88209316,3.73115281 5.77019061,3.67768826 5.69652143,3.5856795 C5.68004689,3.56547487 4.06771768,1.57733961 2.57537287,1.57733961 M5.99990167,11.33089 C5.9178398,11.33089 5.83577793,11.3050902 5.7670822,11.2534907 C5.6909263,11.1966069 3.89209285,9.84227527 2.31706449,8.07172829 C0.106056659,5.58593754 -0.526503576,3.57821933 0.436169174,2.1042141 C0.975477285,1.2795545 1.65590694,0.84158036 2.45911856,0.803036149 C3.94058396,0.730921174 5.38661354,2.09146965 5.99990167,2.75293804 C6.61287896,2.09146965 8.04678577,0.727191089 9.54068478,0.803036149 C10.3438964,0.84158036 11.0246369,1.2795545 11.5636342,2.1042141 C12.5266178,3.57821933 11.8940575,5.58593754 9.68273885,8.07172829 C8.10739965,9.84227527 6.3085662,11.1966069 6.23272114,11.2534907 C6.16371457,11.3050902 6.0816527,11.33089 5.99990167,11.33089" id="path-1"></path>
    </defs>
    <g id="Collections" stroke="none" stroke-width="1" fill="none" fill-rule="evenodd">
        <g id="PlayProject---search---dark-theme" transform="translate(-241.000000, -339.000000)">
            <g id="Group-6" transform="translate(80.000000, 338.000000)">
                <g id="icon/favorite" transform="translate(161.000000, 1.000000)">
                    <mask id="mask-2" fill="white">
                        <use xlink:href="#path-1"></use>
                    </mask>
                    <use id="Fill-1" fill="#000000" fill-rule="evenodd" xlink:href="#path-1"></use>
                    <g id="colors/white" mask="url(#mask-2)" fill="#FFFFFF" fill-rule="evenodd">
                        <rect id="Rectangle" x="0" y="0" width="12" height="12"></rect>
                    </g>
                </g>
            </g>
        </g>
    </g>
</svg>